<mxfile host="app.diagrams.net" modified="2023-04-20T09:36:05.511Z" agent="Mozilla/5.0 (Windows NT 10.0; Win64; x64) AppleWebKit/537.36 (KHTML, like Gecko) Chrome/112.0.0.0 Safari/537.36" etag="E92NuYy_j120ZSfR81qF" version="21.2.1" type="github">
  <diagram name="Page-1" id="IkFWVg7XAirX_dY6NtZK">
    <mxGraphModel dx="880" dy="452" grid="1" gridSize="10" guides="1" tooltips="1" connect="1" arrows="1" fold="1" page="1" pageScale="1" pageWidth="827" pageHeight="1169" math="0" shadow="0">
      <root>
        <mxCell id="0" />
        <mxCell id="1" parent="0" />
        <mxCell id="bwYoMFYb_53iKZJDA32y-12" style="edgeStyle=elbowEdgeStyle;rounded=0;orthogonalLoop=1;jettySize=auto;html=1;exitX=0;exitY=0;exitDx=40;exitDy=120;exitPerimeter=0;" edge="1" parent="1" source="bwYoMFYb_53iKZJDA32y-1" target="bwYoMFYb_53iKZJDA32y-3">
          <mxGeometry relative="1" as="geometry" />
        </mxCell>
        <mxCell id="bwYoMFYb_53iKZJDA32y-1" value="" style="shape=cube;whiteSpace=wrap;html=1;boundedLbl=1;backgroundOutline=1;darkOpacity=0.05;darkOpacity2=0.1;" vertex="1" parent="1">
          <mxGeometry x="250" y="200" width="40" height="220" as="geometry" />
        </mxCell>
        <mxCell id="bwYoMFYb_53iKZJDA32y-14" style="edgeStyle=elbowEdgeStyle;rounded=0;orthogonalLoop=1;jettySize=auto;html=1;exitX=0;exitY=0;exitDx=40;exitDy=100;exitPerimeter=0;entryX=-0.05;entryY=0.507;entryDx=0;entryDy=0;entryPerimeter=0;" edge="1" parent="1" source="bwYoMFYb_53iKZJDA32y-3" target="bwYoMFYb_53iKZJDA32y-4">
          <mxGeometry relative="1" as="geometry" />
        </mxCell>
        <mxCell id="bwYoMFYb_53iKZJDA32y-3" value="" style="shape=cube;whiteSpace=wrap;html=1;boundedLbl=1;backgroundOutline=1;darkOpacity=0.05;darkOpacity2=0.1;" vertex="1" parent="1">
          <mxGeometry x="310" y="230" width="40" height="180" as="geometry" />
        </mxCell>
        <mxCell id="bwYoMFYb_53iKZJDA32y-15" style="edgeStyle=elbowEdgeStyle;rounded=0;orthogonalLoop=1;jettySize=auto;html=1;exitX=0;exitY=0;exitDx=40;exitDy=80;exitPerimeter=0;entryX=0;entryY=0;entryDx=0;entryDy=40;entryPerimeter=0;" edge="1" parent="1" source="bwYoMFYb_53iKZJDA32y-4" target="bwYoMFYb_53iKZJDA32y-5">
          <mxGeometry relative="1" as="geometry" />
        </mxCell>
        <mxCell id="bwYoMFYb_53iKZJDA32y-4" value="" style="shape=cube;whiteSpace=wrap;html=1;boundedLbl=1;backgroundOutline=1;darkOpacity=0.05;darkOpacity2=0.1;" vertex="1" parent="1">
          <mxGeometry x="370" y="240" width="40" height="140" as="geometry" />
        </mxCell>
        <mxCell id="bwYoMFYb_53iKZJDA32y-16" style="edgeStyle=elbowEdgeStyle;rounded=0;orthogonalLoop=1;jettySize=auto;html=1;exitX=0;exitY=0;exitDx=40;exitDy=60;exitPerimeter=0;entryX=0;entryY=0;entryDx=0;entryDy=30;entryPerimeter=0;" edge="1" parent="1" source="bwYoMFYb_53iKZJDA32y-5" target="bwYoMFYb_53iKZJDA32y-7">
          <mxGeometry relative="1" as="geometry" />
        </mxCell>
        <mxCell id="bwYoMFYb_53iKZJDA32y-5" value="" style="shape=cube;whiteSpace=wrap;html=1;boundedLbl=1;backgroundOutline=1;darkOpacity=0.05;darkOpacity2=0.1;" vertex="1" parent="1">
          <mxGeometry x="430" y="260" width="40" height="100" as="geometry" />
        </mxCell>
        <mxCell id="bwYoMFYb_53iKZJDA32y-20" style="edgeStyle=elbowEdgeStyle;rounded=0;orthogonalLoop=1;jettySize=auto;html=1;exitX=0;exitY=0;exitDx=40;exitDy=40;exitPerimeter=0;entryX=0;entryY=0;entryDx=0;entryDy=10;entryPerimeter=0;" edge="1" parent="1" source="bwYoMFYb_53iKZJDA32y-6" target="bwYoMFYb_53iKZJDA32y-8">
          <mxGeometry relative="1" as="geometry" />
        </mxCell>
        <mxCell id="bwYoMFYb_53iKZJDA32y-6" value="" style="shape=cube;whiteSpace=wrap;html=1;boundedLbl=1;backgroundOutline=1;darkOpacity=0.05;darkOpacity2=0.1;" vertex="1" parent="1">
          <mxGeometry x="550" y="280" width="40" height="60" as="geometry" />
        </mxCell>
        <mxCell id="bwYoMFYb_53iKZJDA32y-19" style="edgeStyle=elbowEdgeStyle;rounded=0;orthogonalLoop=1;jettySize=auto;html=1;exitX=0;exitY=0;exitDx=40;exitDy=50;exitPerimeter=0;entryX=0;entryY=0;entryDx=0;entryDy=20;entryPerimeter=0;" edge="1" parent="1" source="bwYoMFYb_53iKZJDA32y-7" target="bwYoMFYb_53iKZJDA32y-6">
          <mxGeometry relative="1" as="geometry" />
        </mxCell>
        <mxCell id="bwYoMFYb_53iKZJDA32y-7" value="" style="shape=cube;whiteSpace=wrap;html=1;boundedLbl=1;backgroundOutline=1;darkOpacity=0.05;darkOpacity2=0.1;" vertex="1" parent="1">
          <mxGeometry x="490" y="270" width="40" height="80" as="geometry" />
        </mxCell>
        <mxCell id="bwYoMFYb_53iKZJDA32y-8" value="" style="shape=cube;whiteSpace=wrap;html=1;boundedLbl=1;backgroundOutline=1;darkOpacity=0.05;darkOpacity2=0.1;" vertex="1" parent="1">
          <mxGeometry x="610" y="290" width="40" height="40" as="geometry" />
        </mxCell>
        <mxCell id="bwYoMFYb_53iKZJDA32y-21" value="Input Image" style="text;html=1;strokeColor=none;fillColor=none;align=center;verticalAlign=middle;whiteSpace=wrap;rounded=0;" vertex="1" parent="1">
          <mxGeometry x="190" y="295" width="60" height="30" as="geometry" />
        </mxCell>
        <mxCell id="bwYoMFYb_53iKZJDA32y-22" value="Probability Score" style="text;html=1;strokeColor=none;fillColor=none;align=center;verticalAlign=middle;whiteSpace=wrap;rounded=0;" vertex="1" parent="1">
          <mxGeometry x="630" y="330" width="60" height="30" as="geometry" />
        </mxCell>
        <mxCell id="bwYoMFYb_53iKZJDA32y-23" value="&lt;h1&gt;Discriminator&lt;/h1&gt;&lt;p&gt;&lt;br&gt;&lt;/p&gt;" style="text;html=1;strokeColor=none;fillColor=none;spacing=5;spacingTop=-20;whiteSpace=wrap;overflow=hidden;rounded=0;" vertex="1" parent="1">
          <mxGeometry x="340" y="180" width="170" height="50" as="geometry" />
        </mxCell>
        <mxCell id="bwYoMFYb_53iKZJDA32y-24" value="" style="shape=flexArrow;endArrow=classic;html=1;rounded=0;" edge="1" parent="1">
          <mxGeometry width="50" height="50" relative="1" as="geometry">
            <mxPoint x="370" y="410" as="sourcePoint" />
            <mxPoint x="600" y="410" as="targetPoint" />
          </mxGeometry>
        </mxCell>
      </root>
    </mxGraphModel>
  </diagram>
</mxfile>
